<svg viewBox="0 0 138 138" style="overflow: hidden; position: relative;" xmlns="http://www.w3.org/2000/svg" width="138" version="1.1" height="138"><desc>Created with Raphaël 2.1.0</desc><defs><linearGradient gradientTransform="matrix(1,0,0,1,0,0)" y2="0" x2="6.123233995736766e-17" y1="1" x1="0" id="188190-_03CA45-_AF00AA"><stop stop-color="#03ca45" offset="0%"/><stop stop-color="#af00aa" offset="100%"/></linearGradient></defs><path stroke-width="0.2631578947368421" transform="matrix(3.8,0,0,3.8,8.2,8.2)" fill-opacity="1" opacity="1" d="M16,30.534C24.027,30.534,30.534,24.027,30.534,15.999999999999998C30.534,7.972999999999999,24.027,1.4659999999999975,15.999999999999998,1.4659999999999975C7.973,1.466,1.466,7.973,1.466,16C1.466,24.027,7.973,30.534,16,30.534ZM18.335,6.276L21.871000000000002,9.814L15.684000000000001,16.001L21.871000000000002,22.188000000000002L18.335,25.725L8.612,16.001L18.335,6.276Z" stroke="none" fill="#0071b9" style="opacity: 1; fill-opacity: 1;"/><path transform="matrix(1,0,0,1,0,0)" fill-opacity="0.3" d="M0,0" stroke="none" fill="#ffffff" style="fill-opacity: 0.3;"/><script xmlns=""/></svg>